<?xml version="1.0" standalone="no"?>
<!DOCTYPE svg PUBLIC "-//W3C//DTD SVG 20010904//EN"
 "http://www.w3.org/TR/2001/REC-SVG-20010904/DTD/svg10.dtd">
<svg version="1.0" xmlns="http://www.w3.org/2000/svg"
 width="640.000000pt" height="200.000000pt" viewBox="0 0 640.000000 200.000000"
 preserveAspectRatio="xMidYMid meet">

<g transform="translate(0.000000,200.000000) scale(0.100000,-0.100000)"
fill="#000000" stroke="none">
<path d="M1 1823 c1 -98 4 -170 6 -160 3 9 9 15 14 11 5 -3 7 -10 3 -15 -3 -5
-2 -9 3 -8 19 3 27 -2 15 -10 -11 -7 -10 -9 3 -14 9 -4 13 -3 10 3 -11 18 7
10 26 -11 10 -12 16 -26 13 -31 -3 -4 0 -7 8 -6 7 2 12 -3 10 -10 -1 -8 2 -10
8 -7 6 4 20 -1 31 -11 24 -21 25 -41 2 -23 -16 11 -16 11 -5 -1 7 -8 20 -15
30 -15 10 0 16 -7 16 -17 -1 -10 2 -15 8 -12 5 3 47 -33 94 -80 47 -47 89 -86
95 -86 12 0 12 -17 0 -24 -5 -4 -11 0 -14 6 -3 7 -4 3 -4 -9 1 -20 3 -21 17
-8 15 13 19 12 38 -8 12 -13 19 -27 15 -31 -5 -4 -3 -6 2 -5 19 6 57 -22 51
-37 -3 -9 -2 -12 5 -9 12 8 139 -118 139 -139 0 -8 -4 -17 -9 -20 -5 -3 -12
-18 -16 -33 -3 -15 -11 -30 -15 -33 -5 -3 -10 -20 -12 -38 -1 -21 -7 -31 -15
-28 -7 3 -10 -1 -7 -9 3 -7 -2 -29 -11 -49 -9 -19 -15 -39 -12 -43 3 -4 -2
-14 -9 -21 -12 -11 -14 -10 -10 11 2 14 11 38 20 55 14 27 13 42 -4 42 -4 0
-7 -6 -8 -12 0 -7 -3 -23 -6 -35 -14 -54 -15 -67 -6 -84 7 -12 7 -20 0 -24 -5
-3 -10 -15 -10 -26 0 -10 -4 -19 -9 -19 -6 0 -10 -8 -9 -17 0 -39 -27 -103
-43 -103 -4 0 -7 -16 -7 -36 0 -20 -5 -40 -12 -44 -6 -4 -10 -11 -9 -16 3 -17
-13 -54 -23 -54 -6 0 -8 -7 -4 -15 3 -8 1 -15 -4 -15 -15 0 -12 23 6 49 12 17
13 26 5 34 -8 8 -11 5 -11 -11 0 -12 -4 -22 -9 -22 -10 0 -8 -46 4 -74 7 -15
5 -18 -7 -13 -12 4 -14 1 -11 -13 8 -29 -28 -122 -44 -115 -10 3 -11 0 -3 -15
7 -12 7 -21 0 -25 -5 -3 -10 -15 -10 -26 0 -10 -5 -19 -11 -19 -5 0 -7 -5 -4
-10 3 -6 -1 -10 -11 -10 -14 0 -14 -2 -3 -16 10 -13 10 -17 0 -24 -8 -4 -11
-12 -7 -18 3 -6 2 -13 -4 -17 -5 -3 -10 -15 -10 -26 0 -19 13 -19 626 -19 552
0 625 2 620 15 -3 9 0 15 9 15 7 0 17 5 21 12 5 8 2 9 -10 5 -12 -5 -16 -3
-13 5 2 7 11 12 18 10 10 -3 11 0 3 8 -14 14 15 83 33 76 7 -3 10 1 7 8 -3 8
6 26 20 41 14 15 26 32 26 37 0 5 5 6 10 3 7 -4 6 -11 -2 -20 -36 -40 -38 -43
-23 -49 16 -6 12 -40 -7 -64 -11 -13 -11 -15 2 -7 12 7 13 6 2 -6 -7 -8 -18
-14 -25 -14 -7 0 -16 -14 -21 -32 -6 -18 -17 -34 -25 -36 -11 -3 -10 -5 4 -5
13 -1 35 17 60 50 22 28 48 59 58 68 17 17 14 55 -4 44 -5 -3 -7 -9 -4 -14 3
-5 1 -11 -4 -14 -5 -4 -13 -1 -17 5 -5 8 -3 9 6 4 10 -6 11 -4 4 6 -13 21 -14
42 -2 56 14 17 25 16 32 -3 5 -12 2 -15 -9 -10 -13 5 -12 1 2 -19 17 -22 41
-36 29 -16 -3 5 5 16 19 25 14 9 25 23 25 31 0 8 6 18 14 22 7 4 41 42 75 83
34 41 82 97 107 123 24 26 44 53 44 60 0 7 12 24 27 38 16 14 42 43 60 65 30
38 35 41 90 43 32 1 61 8 65 14 6 9 11 8 18 -3 7 -11 10 -12 10 -2 0 10 13 13
43 11 24 -2 47 0 52 3 6 3 39 6 74 6 53 -1 65 2 67 16 2 13 -1 14 -10 7 -8 -7
-55 -10 -127 -7 -63 2 -134 1 -159 -4 l-45 -7 39 -2 c53 -1 41 -10 -17 -12
-26 -1 -47 -5 -47 -9 0 -4 -12 -7 -27 -6 -16 1 -29 -5 -29 -11 -1 -7 -2 -18
-3 -24 0 -5 -6 -7 -11 -4 -6 4 -8 10 -6 14 3 4 -1 8 -9 8 -8 0 -12 -4 -9 -8 2
-4 0 -11 -6 -14 -8 -5 -7 -12 2 -23 11 -13 11 -14 0 -8 -9 6 -12 3 -10 -10 2
-13 -3 -19 -15 -19 -20 0 -37 -22 -30 -40 2 -8 -4 -12 -18 -11 -15 1 -23 -5
-25 -19 -3 -20 -32 -47 -43 -40 -4 2 -8 -6 -8 -17 -2 -25 -19 -38 -43 -33 -12
2 -17 -3 -17 -18 0 -53 -4 -81 -11 -72 -15 22 -37 10 -37 -20 -1 -19 -6 -31
-15 -31 -8 -1 -21 -2 -29 -3 -11 -1 -11 -4 0 -18 10 -11 10 -14 2 -9 -9 5 -13
0 -13 -13 0 -22 -14 -28 -25 -11 -4 6 -1 17 5 25 7 8 9 15 5 15 -4 0 -3 6 3
13 5 6 8 23 6 36 -5 30 25 68 38 49 6 -9 7 -5 3 9 -4 15 0 28 14 40 12 10 21
21 21 26 0 10 29 41 31 33 1 -3 3 -10 4 -16 1 -5 3 -13 4 -17 2 -14 25 17 28
39 4 22 3 22 -11 3 -9 -11 -16 -16 -16 -12 0 11 30 66 49 89 7 10 11 27 8 38
-5 18 -3 19 9 9 12 -10 13 -8 5 13 -7 18 -6 29 2 37 9 9 -1 11 -38 9 -28 -2
-53 -7 -57 -13 -5 -6 -12 -5 -18 5 -7 11 -10 12 -10 2 0 -9 -10 -12 -27 -10
-24 3 -28 7 -26 33 2 24 1 26 -6 10 -7 -17 -12 -14 -44 30 -20 28 -37 56 -37
63 0 7 -4 11 -8 8 -5 -3 -22 13 -38 35 -16 23 -37 50 -46 60 -19 20 -25 44 -8
34 15 -9 8 44 -8 57 -9 8 -16 8 -25 -1 -9 -10 -8 -11 5 -6 14 5 16 2 13 -15
-5 -28 -15 -39 -15 -18 0 9 -7 18 -15 22 -9 3 -12 12 -8 22 4 12 3 15 -5 10
-7 -4 -17 3 -24 18 -6 14 -14 26 -18 26 -4 0 -19 19 -34 43 l-27 42 29 -34
c27 -32 29 -33 28 -10 -1 13 -9 27 -18 31 -11 4 -15 13 -12 23 4 10 0 15 -10
15 -9 0 -16 -5 -16 -12 0 -6 -9 -3 -20 7 -30 27 -25 34 25 31 25 -1 45 2 45 7
0 5 7 7 15 3 8 -3 15 -2 15 2 0 4 9 8 20 9 11 1 20 -4 20 -10 0 -8 3 -8 9 1 4
7 30 15 57 18 63 6 85 10 106 19 28 11 83 11 81 -1 -1 -6 4 -11 12 -11 8 0 12
4 9 8 -6 10 15 23 45 27 18 2 22 -1 18 -12 -4 -9 -1 -18 5 -22 7 -5 8 -2 3 6
-6 10 0 12 24 8 18 -3 35 0 38 5 3 6 1 7 -5 3 -7 -4 -12 -2 -12 5 0 6 -8 9
-20 6 -12 -3 -18 -1 -14 5 3 5 15 8 25 5 11 -3 19 -1 19 5 0 6 24 8 59 6 33
-1 57 0 54 5 -4 7 -2 8 34 12 14 1 20 -2 16 -11 -6 -17 -20 -18 -27 -1 -3 6
-3 2 -1 -9 7 -26 -23 -106 -36 -98 -5 3 -10 0 -10 -5 -1 -6 -3 -15 -4 -21 -1
-5 -3 -15 -4 -21 0 -5 -5 -7 -11 -4 -5 3 -10 -1 -10 -10 0 -12 5 -15 18 -11 9
3 5 -3 -10 -15 -35 -26 -36 -49 -2 -49 15 0 23 -4 18 -11 -3 -6 -15 -8 -26 -6
-11 3 -26 3 -34 0 -17 -6 -19 -33 -1 -33 8 0 7 -4 -3 -10 -9 -6 -10 -10 -3
-10 6 0 14 4 17 9 3 4 17 6 31 4 13 -3 23 -9 20 -12 -2 -4 3 -8 11 -8 10 0 11
4 4 11 -14 14 -13 31 3 18 6 -5 30 -9 52 -7 22 1 46 -2 53 -8 8 -6 17 -5 26 2
11 9 20 9 34 2 13 -7 22 -7 31 2 9 9 16 9 30 0 14 -9 21 -9 30 0 9 9 16 9 29
0 12 -7 24 -8 36 -1 12 7 22 6 32 -3 10 -8 18 -9 24 -3 6 6 51 9 101 7 88 -4
91 -3 86 16 -3 12 -1 21 4 21 5 0 9 -9 9 -20 0 -19 5 -20 65 -17 36 3 68 1 70
-3 8 -13 45 1 45 16 0 8 5 14 10 14 6 0 10 -9 10 -20 0 -23 45 -38 108 -34 23
2 42 -1 42 -7 0 -5 9 -9 20 -9 25 0 27 20 3 21 -69 5 -84 9 -156 45 -16 8 -47
14 -70 14 -27 0 -37 3 -28 9 8 5 9 11 3 15 -6 3 -13 2 -17 -4 -3 -5 -18 -10
-33 -10 -20 0 -23 -3 -13 -9 8 -5 21 -7 30 -4 13 4 14 3 2 -5 -10 -7 -21 -7
-33 -1 -25 13 -23 17 15 33 31 14 31 14 7 16 -14 1 -29 2 -34 1 -5 -1 -16 5
-26 14 -10 9 -27 17 -39 18 -11 1 -21 6 -21 12 0 6 -3 6 -8 -1 -13 -19 -42
-25 -42 -8 0 11 6 14 16 10 8 -3 13 -2 10 3 -3 5 -15 11 -26 14 -11 3 -18 1
-14 -4 9 -15 -13 -10 -29 6 -8 8 -18 11 -22 7 -5 -4 -5 1 -2 11 4 9 2 17 -3
17 -6 0 -10 -7 -10 -16 0 -14 -1 -14 -16 0 -8 9 -20 16 -25 16 -6 0 -8 4 -4 9
3 5 1 12 -5 16 -5 3 -10 -1 -10 -10 0 -13 -17 -7 -80 26 -44 22 -80 47 -80 55
0 8 -6 14 -14 14 -8 0 -17 7 -20 16 -9 24 -7 31 4 14 5 -8 10 -10 10 -4 0 6
-7 17 -15 24 -8 7 -15 9 -15 6 0 -4 -9 -2 -20 4 -11 6 -20 7 -20 2 0 -6 9 -12
20 -15 11 -3 20 -11 20 -19 0 -11 -2 -10 -9 1 -5 7 -13 11 -19 7 -5 -3 -14 7
-20 22 -11 30 -12 62 -2 62 4 0 5 37 4 81 -2 45 -1 86 2 90 3 5 7 59 10 121 6
148 12 216 23 256 6 18 8 39 5 47 -3 7 -1 16 5 19 6 4 8 13 4 22 -5 13 -72 15
-534 14 -438 -1 -527 -4 -523 -15 3 -7 -4 -18 -15 -25 -11 -6 -20 -14 -20 -18
1 -4 1 -14 0 -22 -1 -13 -2 -13 -11 0 -8 12 -10 10 -10 -8 0 -16 4 -21 13 -16
13 9 -12 -27 -28 -38 -5 -4 -11 -12 -11 -18 -1 -5 -2 -16 -3 -22 -1 -9 -4 -8
-11 2 -8 12 -10 10 -10 -8 0 -13 4 -20 10 -17 5 3 7 0 4 -9 -3 -8 -13 -12 -22
-9 -15 4 -15 3 -2 -6 13 -9 13 -12 1 -20 -8 -5 -16 -17 -17 -26 -1 -9 -6 -20
-10 -23 -4 -4 -4 1 -1 10 3 10 2 20 -3 23 -5 3 -7 -10 -5 -29 2 -28 0 -34 -14
-29 -14 4 -14 3 -1 -6 13 -9 13 -12 1 -20 -8 -5 -16 -17 -17 -26 -1 -9 -6 -20
-10 -23 -4 -4 -4 1 -1 10 3 10 2 20 -2 23 -5 3 -8 -9 -7 -26 1 -18 -5 -38 -13
-47 -9 -9 -17 -19 -17 -24 -1 -4 -2 -14 -3 -20 -1 -9 -4 -8 -11 2 -8 12 -10
10 -10 -8 0 -16 4 -21 13 -16 14 9 -12 -26 -31 -41 -10 -8 -9 -11 7 -11 12 0
21 6 21 12 0 6 6 17 14 23 8 7 3 -13 -12 -44 -14 -30 -30 -55 -35 -55 -5 0 -4
7 3 15 7 8 9 15 4 15 -5 0 -2 4 6 10 20 12 9 20 -19 13 -19 -5 -22 -11 -17
-34 4 -23 2 -27 -12 -23 -14 5 -15 4 -2 -5 13 -9 13 -12 1 -20 -8 -5 -16 -17
-17 -26 -1 -9 -6 -20 -10 -23 -4 -4 -4 1 -1 10 3 10 2 20 -3 23 -5 3 -7 -10
-5 -29 2 -28 0 -34 -14 -29 -14 4 -14 3 -1 -6 13 -10 13 -13 -3 -22 -9 -6 -15
-14 -12 -19 3 -5 1 -11 -5 -15 -6 -4 -8 -11 -5 -16 4 -5 -1 -12 -9 -15 -9 -3
-13 -10 -10 -16 3 -5 11 -4 20 3 18 15 18 10 -5 -42 l-19 -43 -6 35 c-4 19 -7
51 -9 71 -1 21 -5 38 -9 38 -14 0 0 34 17 40 17 6 16 8 -8 14 -21 5 -26 11
-23 29 3 12 5 26 5 30 1 5 5 5 11 2 6 -4 7 1 3 11 -4 11 -8 13 -11 6 -9 -27
-21 -9 -16 23 3 22 1 35 -5 35 -6 0 -11 14 -11 30 0 17 -5 30 -11 30 -8 0 -7
5 1 15 11 13 10 14 -1 10 -11 -4 -15 5 -15 37 -1 23 -7 44 -13 46 -6 2 -11 14
-11 27 0 13 -4 26 -9 29 -14 9 -19 52 -8 71 6 12 6 16 -1 11 -14 -8 -25 25
-12 38 5 5 10 15 10 21 0 5 -4 3 -9 -4 -8 -12 -11 -10 -16 10 -3 14 -7 41 -8
62 -1 20 -8 39 -16 42 -9 4 -11 15 -7 40 12 63 6 65 -244 65 l-221 0 2 -177z
m1081 125 c-8 -8 -9 -4 -5 13 4 13 8 18 11 10 2 -7 -1 -18 -6 -23z m-15 -25
c-2 -5 -12 -26 -22 -48 -10 -22 -20 -34 -23 -27 -2 7 3 21 12 31 9 10 13 21 9
25 -4 4 -1 11 7 16 18 12 22 12 17 3z m-49 -100 c-36 -73 -52 -102 -55 -99 -2
2 5 19 16 39 11 19 17 38 13 42 -3 3 0 10 8 15 18 12 22 12 18 3z m-63 -132
c-3 -6 -11 -11 -17 -11 -6 0 -6 6 2 15 14 17 26 13 15 -4z m-40 -74 c-8 -21
-19 -37 -24 -37 -5 0 0 18 12 39 27 48 33 47 12 -2z m-45 -87 c-7 -16 -16 -30
-21 -30 -14 0 -11 18 4 23 9 4 8 8 -3 17 -13 10 -13 11 3 6 11 -4 17 0 17 11
0 9 3 13 6 10 4 -4 1 -20 -6 -37z m-99 -197 c-12 -20 -14 -14 -5 12 4 9 9 14
11 11 3 -2 0 -13 -6 -23z m-17 -38 c-4 -8 -11 -15 -16 -15 -6 0 -5 6 2 15 7 8
14 15 16 15 2 0 1 -7 -2 -15z m-33 -62 c-12 -20 -14 -14 -5 12 4 9 9 14 11 11
3 -2 0 -13 -6 -23z m-11 -33 c0 -5 -5 -10 -11 -10 -5 0 -7 5 -4 10 3 6 8 10
11 10 2 0 4 -4 4 -10z m1304 -135 c-7 -16 -24 -21 -24 -6 0 8 7 13 27 20 1 1
0 -6 -3 -14z m54 7 c7 -5 10 -16 7 -24 -5 -14 13 -15 154 -14 88 1 168 -2 178
-6 17 -6 17 -7 -1 -7 -16 -1 -18 -6 -13 -38 5 -28 4 -34 -4 -23 -8 11 -12 12
-16 3 -2 -7 -13 -13 -23 -13 -10 0 -21 6 -24 13 -5 10 -7 10 -12 0 -7 -15 -44
-17 -44 -3 0 6 -7 10 -15 10 -8 0 -15 -4 -15 -10 0 -5 -7 -10 -15 -10 -8 0
-15 5 -15 10 0 6 -7 10 -15 10 -8 0 -15 -4 -15 -10 0 -14 -37 -12 -44 3 -5 10
-7 10 -12 0 -7 -15 -44 -17 -44 -3 0 6 9 10 20 10 15 0 20 7 20 25 0 20 -5 25
-26 25 -20 0 -25 -5 -24 -22 4 -40 1 -43 -40 -44 -38 -2 -40 0 -40 27 0 16 5
29 10 29 6 0 10 -9 10 -20 0 -15 7 -20 25 -20 20 0 25 5 25 25 0 23 -4 25 -40
25 -22 0 -40 4 -40 9 0 4 18 6 40 4 31 -3 40 -1 40 12 0 8 -7 15 -16 15 -8 0
-12 5 -9 10 7 12 16 12 33 2z m329 -10 c-6 -9 -294 -8 -304 1 -3 4 64 7 151 7
86 0 155 -3 153 -8z m63 -52 c0 -46 -16 -54 -22 -12 -5 33 0 52 13 52 5 0 9
-18 9 -40z m130 -20 c0 -5 -2 -10 -4 -10 -3 0 -8 5 -11 10 -3 6 -1 10 4 10 6
0 11 -4 11 -10z m211 -58 c-7 -2 -18 1 -23 6 -8 8 -4 9 13 5 13 -4 18 -8 10
-11z m-462 -246 c-6 -7 -118 -11 -124 -4 -3 3 25 6 62 7 37 1 65 0 62 -3z
m-389 -192 c0 -8 -19 -13 -24 -6 -3 5 1 9 9 9 8 0 15 -2 15 -3z m-40 -49 c0
-2 -10 -9 -22 -15 -22 -11 -22 -10 -4 4 21 17 26 19 26 11z m-53 -61 c-8 -8
-48 -13 -43 -6 2 4 14 8 26 9 12 1 20 0 17 -3z m-177 -115 c-6 -11 -8 -24 -5
-29 8 -13 -9 -20 -25 -9 -13 8 -12 11 3 20 9 5 17 19 17 30 0 11 5 17 10 14 7
-4 7 -13 0 -26z"/>
<path d="M2135 1001 c0 -19 6 -27 23 -29 32 -5 32 44 -1 50 -19 4 -23 0 -22
-21z"/>
<path d="M2210 995 c0 -16 6 -25 15 -25 9 0 15 9 15 25 0 16 -6 25 -15 25 -9
0 -15 -9 -15 -25z"/>
<path d="M2270 995 c0 -18 5 -25 20 -25 15 0 20 7 20 25 0 18 -5 25 -20 25
-15 0 -20 -7 -20 -25z"/>
<path d="M2330 995 c0 -18 5 -25 20 -25 15 0 20 7 20 25 0 18 -5 25 -20 25
-15 0 -20 -7 -20 -25z"/>
<path d="M523 1993 c3 -5 8 -39 12 -78 3 -38 10 -72 14 -75 4 -3 8 -21 9 -40
1 -19 3 -46 5 -60 3 -14 5 -36 7 -50 5 -52 18 42 18 127 0 77 -1 83 -20 83
-14 0 -18 5 -15 15 4 8 2 17 -2 20 -5 3 -8 18 -7 35 1 20 -3 30 -12 30 -7 0
-11 -3 -9 -7z m54 -195 c-3 -8 -6 -5 -6 6 -1 11 2 17 5 13 3 -3 4 -12 1 -19z"/>
<path d="M2161 1978 c0 -16 -7 -28 -13 -28 -10 0 -9 -3 1 -9 8 -5 9 -10 3 -12
-9 -3 -18 -82 -27 -239 -1 -19 -3 -39 -4 -45 -2 -5 -3 -29 -3 -52 0 -24 -4
-45 -8 -48 -5 -3 -7 -12 -3 -21 3 -8 -3 -24 -13 -36 -11 -12 -13 -18 -6 -14 9
5 12 -7 12 -50 0 -72 7 -68 11 6 1 30 5 64 8 74 4 20 4 20 13 0 4 -11 6 9 3
49 -3 37 -2 67 3 67 4 0 8 35 8 78 -1 76 10 181 19 191 3 2 5 -6 5 -19 0 -53
11 -7 14 61 3 41 2 61 -1 44 l-6 -30 -7 30 -8 30 -1 -27z"/>
<path d="M2325 1990 c-3 -5 4 -7 16 -5 27 5 60 -29 52 -53 -6 -14 -4 -15 9 -4
13 10 17 10 22 -4 3 -8 6 -21 5 -27 0 -7 -4 -3 -8 7 -4 11 -10 15 -13 10 -4
-5 6 -23 20 -39 14 -17 23 -22 19 -13 -10 28 11 31 29 3 9 -14 36 -47 60 -73
79 -85 90 -97 92 -105 1 -4 12 -18 24 -30 13 -12 23 -29 23 -37 0 -8 11 -20
25 -27 33 -16 49 -40 43 -62 -3 -10 1 -22 8 -27 9 -5 11 -2 6 9 -10 25 5 20
27 -9 15 -22 16 -28 5 -35 -12 -8 -12 -11 1 -22 25 -20 52 -75 39 -79 -6 -2
19 -42 56 -88 66 -84 107 -149 86 -136 -16 10 -14 -1 7 -31 12 -19 13 -25 3
-19 -10 6 -12 5 -7 -2 9 -15 36 -15 36 0 0 6 3 8 8 4 10 -10 10 -56 0 -50 -4
3 -8 0 -8 -5 0 -6 7 -11 16 -11 8 0 12 -4 9 -10 -3 -6 1 -7 9 -4 18 7 22 24 6
24 -5 0 -10 5 -10 12 0 6 9 3 20 -7 19 -17 29 -41 13 -32 -5 3 -13 0 -19 -7
-7 -8 -5 -17 9 -31 11 -11 16 -14 12 -6 -6 10 -4 12 4 7 7 -5 10 -14 7 -22 -3
-7 2 -17 10 -22 8 -5 16 -18 17 -29 0 -12 4 -21 7 -21 19 2 43 -4 33 -9 -10
-3 -9 -8 2 -20 8 -8 12 -19 9 -25 -4 -6 -2 -8 4 -4 6 3 13 2 17 -4 3 -5 11
-10 17 -10 5 0 0 9 -13 21 l-24 20 27 -17 c22 -13 27 -21 22 -40 -5 -18 -2
-24 10 -24 11 0 16 -7 14 -17 -2 -10 3 -18 11 -18 21 0 24 20 7 38 -8 8 -12
17 -9 21 3 3 17 -10 31 -30 18 -27 21 -38 12 -44 -7 -4 -9 -13 -6 -19 4 -6 3
-11 -2 -11 -11 0 -10 -55 1 -66 4 -4 7 -14 7 -23 0 -11 -3 -10 -15 5 -8 10
-15 14 -15 8 0 -14 25 -36 32 -29 3 3 11 -2 19 -12 9 -11 10 -14 1 -9 -8 5
-11 1 -9 -15 4 -25 34 -34 56 -16 12 9 13 9 7 0 -8 -14 1 -16 45 -13 15 0 34
-6 43 -15 9 -9 16 -11 16 -5 0 6 -7 13 -15 16 -8 4 -15 10 -15 16 0 17 21 -4
101 -100 58 -70 78 -101 74 -116 -3 -12 -2 -15 1 -9 7 16 46 -21 109 -102 25
-33 71 -93 102 -132 l55 -73 124 0 c122 0 124 0 125 23 1 12 3 33 4 47 2 14 4
82 6 152 2 128 8 156 28 144 6 -4 9 -2 6 6 -5 16 14 42 37 51 12 4 15 2 11 -8
-3 -8 -9 -13 -13 -10 -4 3 -13 -2 -20 -10 -9 -11 -9 -15 -1 -15 7 0 9 -5 5
-12 -4 -7 -3 -8 5 -4 6 4 9 12 5 17 -3 6 2 9 12 7 14 -2 18 4 20 27 2 49 3 55
14 55 6 0 10 -6 8 -14 -2 -8 1 -16 7 -18 5 -2 10 6 10 17 0 11 6 19 13 17 6
-1 11 1 11 5 -3 18 1 33 9 31 4 -2 8 2 9 7 1 6 -5 9 -14 7 -14 -3 -14 -1 1 13
10 11 14 25 10 37 -4 14 -3 18 6 13 7 -4 9 -17 6 -31 -4 -13 -3 -24 2 -24 4 0
8 10 9 22 1 11 8 25 15 31 10 6 9 8 -4 4 -19 -7 -30 14 -17 34 5 8 9 27 9 42
0 16 4 26 8 23 10 -6 8 -32 -3 -59 -8 -20 -1 -32 13 -23 5 3 8 19 6 36 -2 17
0 29 4 26 5 -3 9 1 9 9 0 8 -4 15 -8 15 -4 0 -5 9 -2 20 3 11 0 20 -6 20 -5 0
-8 -7 -5 -15 4 -8 1 -15 -5 -15 -6 0 -11 9 -11 20 0 10 -13 34 -29 52 -35 41
-54 76 -46 88 3 5 0 12 -6 16 -8 4 -9 3 -5 -4 4 -7 2 -12 -3 -12 -6 0 -11 5
-11 11 0 5 -4 8 -9 5 -5 -3 -12 1 -15 9 -8 21 -49 36 -58 21 -6 -8 -11 -7 -17
4 -6 8 -7 17 -3 20 4 3 -3 16 -15 29 -17 18 -23 20 -23 9 0 -9 6 -18 13 -21
11 -4 14 -32 8 -71 0 -4 -8 -5 -17 -2 -8 3 -12 2 -9 -3 3 -6 -8 -18 -25 -27
-16 -10 -30 -24 -30 -30 0 -7 -6 -14 -13 -17 -13 -5 -14 -2 -8 59 1 5 10 20
21 32 11 12 21 30 23 42 2 11 9 26 15 32 15 15 16 88 1 88 -7 0 -9 10 -7 24 3
16 1 23 -7 20 -6 -3 -17 7 -23 21 -15 32 -15 45 -1 45 5 0 7 -4 4 -10 -8 -12
1 -13 23 -1 25 14 56 -12 45 -36 -14 -26 -16 -86 -3 -78 5 3 10 12 10 19 0 8
6 19 14 25 8 7 12 21 9 31 -3 11 1 27 8 36 10 12 10 17 0 23 -10 6 -9 10 4 14
11 5 14 3 9 -6 -5 -8 -2 -7 9 2 9 7 17 21 16 30 0 12 -2 11 -9 -4 -8 -18 -9
-17 -11 8 -1 15 -3 32 -4 37 -1 6 -3 17 -4 26 0 8 -5 12 -11 9 -7 -5 -7 -50 0
-50 1 0 3 -10 6 -22 2 -13 -1 -23 -6 -23 -6 0 -11 11 -11 25 -2 33 -3 38 -12
52 -4 7 2 18 15 27 12 9 17 16 11 16 -7 0 -15 -5 -18 -10 -13 -21 -25 2 -20
40 3 21 0 42 -5 45 -6 4 -8 11 -4 16 3 5 1 15 -4 22 -5 7 -10 31 -10 55 -1 24
-6 50 -12 57 -7 8 -9 24 -4 37 11 36 13 69 4 63 -5 -3 -7 -12 -3 -20 3 -8 0
-15 -6 -15 -13 0 -14 15 -2 57 7 22 6 35 -1 39 -7 4 -8 2 -4 -4 4 -7 2 -12 -5
-12 -7 0 -9 10 -7 25 3 14 1 25 -3 25 -5 0 -9 5 -9 11 0 6 7 9 15 6 8 -4 17
-1 21 5 4 6 3 9 -2 6 -5 -3 -16 1 -24 10 -13 14 -12 15 3 9 13 -5 16 -2 13 16
-3 12 -5 37 -5 55 -1 39 -18 43 -24 5 l-4 -28 -2 28 c0 17 5 30 15 34 9 3 11
8 5 12 -9 6 -18 43 -20 83 -1 17 -53 18 -850 18 -521 0 -852 -4 -856 -10z
m1702 -92 c-3 -7 -5 -2 -5 12 0 14 2 19 5 13 2 -7 2 -19 0 -25z m-922 -909
c11 -17 -1 -21 -15 -4 -8 9 -8 15 -2 15 6 0 14 -5 17 -11z m10 -49 c3 -6 -1
-7 -9 -4 -18 7 -21 14 -7 14 6 0 13 -4 16 -10z m36 -17 c13 -16 12 -17 -3 -4
-17 13 -22 21 -14 21 2 0 10 -8 17 -17z m-17 -19 c3 -8 2 -12 -4 -9 -6 3 -10
10 -10 16 0 14 7 11 14 -7z m56 -29 c13 -14 19 -25 14 -25 -8 1 -50 50 -41 50
2 0 14 -11 27 -25z m160 -336 c0 -4 -9 -7 -19 -6 -11 0 -18 4 -16 7 6 9 35 8
35 -1z m41 -12 c-10 -9 -11 -8 -5 6 3 10 9 15 12 12 3 -3 0 -11 -7 -18z m899
-26 c0 -5 -7 -12 -16 -15 -14 -5 -15 -4 -4 9 14 17 20 19 20 6z"/>
<path d="M4116 1988 c3 -5 10 -6 15 -3 13 9 11 12 -6 12 -8 0 -12 -4 -9 -9z"/>
<path d="M4160 1995 c0 -2 23 -14 51 -26 32 -14 48 -27 45 -35 -3 -8 0 -11 9
-8 7 3 87 -31 178 -75 118 -58 166 -86 170 -101 3 -12 1 -20 -6 -19 -31 4 -47
-3 -47 -18 0 -15 2 -16 10 -3 13 20 13 4 0 -21 -6 -10 -16 -19 -23 -19 -8 0
-7 4 3 11 13 9 13 10 0 6 -8 -2 -14 -11 -12 -21 2 -9 -4 -16 -13 -16 -8 0 -15
-6 -15 -12 0 -16 20 -47 20 -32 0 6 12 24 26 40 23 26 25 26 14 5 -7 -14 -17
-30 -22 -35 -5 -6 -15 -20 -23 -31 -13 -19 -13 -19 -12 -1 1 10 -5 21 -13 23
-13 4 -13 3 0 -6 13 -9 13 -11 -3 -11 -9 0 -16 -6 -15 -12 2 -7 -3 -12 -9 -10
-7 1 -13 -5 -13 -14 0 -9 5 -12 12 -8 7 4 8 3 4 -4 -4 -7 -14 -12 -22 -12 -12
0 -12 -3 -2 -14 11 -11 15 -11 26 3 7 9 3 -3 -9 -27 -27 -50 -56 -80 -36 -38
7 14 15 26 20 26 13 0 7 18 -9 24 -8 3 -12 2 -9 -4 3 -6 -1 -10 -9 -10 -9 0
-16 -5 -16 -11 0 -5 4 -7 10 -4 6 3 7 -1 4 -9 -3 -9 -14 -16 -23 -16 -14 0
-14 -2 -1 -10 13 -8 13 -10 -2 -10 -11 0 -15 -5 -12 -14 3 -9 -5 -21 -23 -31
-15 -9 -20 -14 -11 -11 12 3 15 1 11 -10 -3 -7 -12 -14 -20 -14 -8 0 -11 -4
-8 -10 3 -5 -1 -10 -9 -10 -17 0 -20 -9 -10 -34 3 -9 11 -13 18 -9 6 3 6 1 -1
-8 -7 -7 -13 -19 -13 -27 0 -8 -13 -34 -30 -58 -41 -62 -55 -88 -41 -79 8 5
10 -2 7 -22 -2 -15 -5 -31 -5 -35 -1 -5 -6 -8 -12 -8 -6 0 -8 9 -4 21 6 19 5
20 -8 8 -9 -9 -12 -18 -6 -24 5 -5 9 -19 9 -31 0 -13 4 -25 9 -29 6 -3 8 -14
6 -25 -2 -11 0 -20 6 -20 5 0 9 -13 9 -29 0 -16 6 -36 13 -43 8 -7 12 -24 10
-37 -2 -18 0 -21 10 -13 9 8 24 -2 60 -43 27 -31 45 -59 41 -68 -3 -8 2 -17
12 -21 15 -6 15 -4 3 11 -12 17 -12 17 5 1 19 -17 14 -39 -7 -34 -7 1 -9 1 -4
-1 4 -3 7 -10 7 -17 0 -6 14 -17 31 -23 21 -8 30 -17 26 -27 -6 -14 21 -46 38
-46 5 0 0 7 -11 15 -15 12 -15 14 -2 9 9 -3 25 -18 34 -32 17 -26 17 -27 -2
-12 -18 14 -18 14 -5 -2 16 -21 37 -23 44 -5 4 8 6 9 6 0 1 -6 -5 -18 -12 -25
-12 -11 -12 -16 0 -26 16 -16 17 -28 1 -30 -40 -3 -52 -11 -55 -35 -2 -14 2
-29 8 -33 9 -5 10 -2 6 10 -4 10 -3 15 3 11 5 -3 20 4 32 16 13 11 34 28 47
37 26 18 17 25 121 -96 l45 -53 48 45 c38 35 47 49 42 65 -3 12 -3 21 2 21 19
0 11 -54 -18 -117 -53 -117 -72 -153 -82 -153 -5 0 -7 -6 -4 -14 3 -8 -2 -20
-11 -28 -16 -12 -16 -11 -3 7 8 11 -6 0 -31 -25 -25 -25 -44 -48 -42 -51 2 -4
-7 -14 -21 -23 -14 -9 -25 -22 -25 -28 0 -7 7 -5 18 4 32 28 40 29 35 6 -4
-19 -3 -20 6 -8 7 10 11 11 11 3 0 -10 138 -13 658 -13 l657 0 25 40 c14 22
28 40 32 40 12 0 10 -7 -8 -25 -21 -21 -10 -32 13 -14 16 13 17 12 4 -4 -8
-10 -20 -16 -27 -13 -7 3 -16 1 -20 -5 -10 -17 1 -19 28 -5 15 8 29 12 31 9 3
-2 4 10 3 27 -2 23 3 34 18 43 12 6 24 10 29 9 4 -1 7 5 7 14 0 9 -5 12 -12 8
-7 -4 -8 -3 -4 4 4 7 14 12 22 12 12 0 12 3 2 14 -11 11 -15 11 -26 -3 -8 -9
-6 -2 4 14 20 34 44 60 44 49 0 -4 -7 -16 -17 -26 -9 -10 -12 -18 -7 -19 5 0
16 -2 26 -4 13 -2 15 3 13 25 -3 21 0 28 10 24 7 -3 16 0 20 5 3 6 10 9 14 7
4 -3 8 5 8 16 1 12 7 24 14 28 6 4 0 8 -15 8 -19 0 -26 -6 -26 -19 0 -11 -6
-19 -12 -19 -9 0 -8 -4 2 -10 8 -5 11 -10 5 -10 -5 0 -16 4 -23 9 -10 6 -6 15
15 38 15 17 33 37 38 45 6 8 28 40 49 72 21 31 43 56 47 56 5 0 9 7 9 15 0 7
7 18 15 23 16 9 11 42 -7 42 -5 0 -7 -4 -4 -9 7 -11 -13 -9 -31 2 -7 5 -17 6
-22 2 -6 -3 -14 3 -20 12 -6 10 -11 12 -11 6 0 -16 -30 -17 -30 -2 0 5 -4 8
-8 5 -12 -7 -82 13 -82 24 0 4 5 10 12 12 7 3 5 7 -6 11 -9 4 -15 3 -12 -1 2
-4 0 -14 -5 -22 -8 -13 -10 -13 -18 -1 -5 7 -14 10 -20 7 -6 -4 -11 -1 -11 6
0 9 -3 9 -10 -2 -7 -12 -10 -12 -10 -1 0 7 -6 11 -15 7 -8 -3 -15 -2 -15 2 0
8 -48 14 -110 15 -19 0 -29 2 -22 4 6 3 12 11 12 19 0 19 -39 18 -46 -1 -9
-23 -61 -75 -68 -68 -10 10 -7 23 5 23 12 0 39 25 39 36 0 4 7 12 17 19 13 9
13 14 3 20 -9 6 -11 4 -6 -4 6 -8 2 -11 -10 -9 -14 2 -18 -2 -16 -16 2 -11 -1
-15 -8 -11 -6 4 -9 1 -8 -7 2 -7 -6 -13 -17 -13 -14 0 -19 -6 -17 -19 2 -12
-1 -16 -10 -10 -7 4 -10 4 -6 -1 4 -4 2 -15 -4 -24 -8 -10 -4 -9 10 3 27 23
28 9 2 -23 -13 -15 -32 -24 -57 -25 -29 -2 -37 -7 -38 -24 -1 -12 2 -19 7 -16
4 3 8 1 8 -3 0 -16 -66 -74 -74 -66 -4 5 -7 4 -6 -2 5 -22 -1 -29 -11 -15 -9
13 -10 13 -6 -2 8 -25 -17 -42 -42 -29 -13 7 -22 8 -26 1 -6 -10 -5 -11 14
-14 18 -2 24 -16 7 -16 -9 0 -22 -11 -28 -25 -8 -19 -14 -22 -20 -13 -6 10 -8
10 -8 0 0 -8 -8 -24 -18 -37 -18 -23 -19 -23 -31 -4 -13 22 -33 16 -24 -7 5
-13 7 -13 15 -2 7 9 8 8 5 -7 -2 -11 -9 -19 -16 -17 -7 1 -10 -2 -7 -6 3 -5
-3 -17 -14 -27 -23 -21 -75 -13 -66 10 3 8 0 17 -6 21 -6 4 -8 3 -5 -3 4 -7
-3 -10 -18 -9 -21 1 -23 3 -10 12 14 10 13 12 -2 16 -25 6 -45 -1 -37 -14 8
-13 -6 -5 -48 25 -22 17 -25 23 -15 38 7 11 17 17 24 15 6 -3 16 1 21 7 10 12
12 18 12 37 0 6 11 8 25 6 14 -3 23 -1 20 5 -4 5 -1 10 4 10 6 1 17 2 24 3 6
1 11 9 9 18 -2 15 13 29 43 40 5 1 8 9 7 17 -2 7 1 10 6 7 5 -3 9 3 8 14 0 11
-4 21 -8 23 -4 1 -57 -47 -117 -106 l-110 -108 -141 92 c-117 77 -138 94 -121
100 24 9 48 49 30 49 -7 0 -9 3 -6 6 4 4 13 1 22 -6 11 -9 15 -9 15 -1 0 7 4
10 8 7 4 -2 19 4 32 15 14 11 49 35 78 54 45 30 51 38 43 54 -6 10 -8 21 -5
24 3 3 -4 3 -17 0 -22 -6 -22 -7 -3 -14 18 -7 14 -9 -18 -13 -7 0 -14 -7 -14
-13 -1 -7 -2 -20 -3 -29 0 -8 -9 -14 -18 -13 -10 1 -26 -1 -35 -5 -9 -4 -25
-9 -35 -10 -10 -2 -18 -11 -18 -22 0 -11 -6 -18 -14 -16 -7 1 -20 -3 -28 -10
-11 -9 -16 -9 -23 1 -6 11 -9 11 -13 0 -3 -9 -6 -5 -7 9 -2 12 -4 27 -5 32 -1
6 -3 28 -4 50 -1 45 -18 54 -24 12 l-4 -27 -2 28 c0 17 5 30 15 34 13 5 13 7
2 14 -9 6 -13 33 -13 93 0 47 -3 78 -7 68 -4 -11 -7 -5 -8 18 -2 62 -12 115
-24 122 -7 5 -6 8 4 8 10 0 11 3 4 8 -6 4 -14 34 -17 67 -3 33 -9 68 -12 78
-5 11 -2 17 6 17 10 0 11 3 3 8 -7 4 -15 36 -18 72 -4 35 -12 68 -19 72 -9 6
-8 8 3 8 13 0 13 2 0 10 -11 7 -14 32 -14 112 0 57 -3 90 -7 73 l-7 -30 -1 35
c-3 60 -13 115 -23 128 -7 8 -6 12 3 12 10 0 11 2 2 8 -7 4 -13 28 -15 52 -3
42 -1 45 22 47 l25 3 -25 -12 c-24 -12 -23 -13 23 -16 26 -2 45 -7 43 -11 -3
-4 9 -5 26 -3 17 3 28 1 25 -4 -6 -11 79 -12 89 -1 4 4 12 7 18 7 6 0 4 -5 -4
-10 -10 -7 1 -9 37 -6 40 3 50 0 46 -10 -6 -16 -23 -19 -23 -4 0 6 -4 10 -10
10 -19 0 -10 -17 16 -28 14 -7 23 -8 19 -2 -3 5 1 10 10 10 9 0 14 -3 12 -7
-3 -5 9 -8 26 -8 18 0 61 -3 97 -6 36 -3 53 -4 37 -2 -15 2 -25 8 -22 13 3 5
20 4 38 -2 17 -5 40 -10 50 -10 15 1 16 -1 2 -14 -8 -9 -19 -12 -25 -9 -5 3
-10 4 -10 1 0 -3 10 -10 21 -17 15 -8 19 -8 15 0 -4 6 0 11 9 11 9 0 14 -4 11
-9 -3 -4 7 -6 22 -2 25 5 25 6 5 9 -36 5 -26 22 12 20 19 -1 35 -5 35 -10 0
-4 -5 -8 -11 -8 -6 0 -3 -7 6 -16 11 -12 14 -25 9 -47 -10 -45 -12 -177 -3
-172 4 3 10 -3 13 -12 3 -13 4 -13 3 3 -1 11 5 29 13 39 14 17 14 18 -10 5
-21 -11 -24 -11 -15 1 6 8 10 26 9 42 0 15 5 32 11 37 7 6 11 20 8 30 -3 11 0
20 6 20 6 0 11 8 11 19 0 21 -23 45 -33 34 -4 -3 -7 1 -7 11 0 9 3 15 8 13 12
-8 54 12 47 23 -3 5 -2 10 3 10 5 0 14 -10 21 -22 6 -13 9 -15 7 -5 -3 10 0
17 9 17 9 0 12 -6 8 -16 -5 -14 -3 -15 15 -5 12 7 22 16 22 22 0 6 4 8 9 4 5
-3 12 4 16 15 3 11 11 20 16 20 13 0 11 -18 -3 -23 -9 -4 -7 -6 3 -6 16 -1 21
-44 7 -66 -7 -11 -3 -64 6 -72 15 -15 -18 -29 -59 -27 -46 3 -75 -13 -75 -42
0 -8 -5 -14 -11 -14 -5 0 -7 -4 -4 -10 3 -5 -3 -15 -14 -21 -10 -7 -17 -18
-14 -26 6 -16 22 -1 40 37 6 14 12 19 12 12 1 -7 6 -10 12 -6 8 5 8 9 -1 14
-10 6 -9 13 2 29 13 18 17 19 21 6 4 -8 17 -14 29 -14 l23 2 -22 4 c-32 6 -29
23 3 23 21 0 25 -4 21 -20 -3 -13 -1 -18 5 -13 7 4 8 1 3 -6 -6 -10 -3 -11 14
-2 25 14 28 23 5 14 -12 -4 -15 -2 -12 8 3 8 16 14 29 13 20 -1 25 4 26 25 2
25 2 25 -7 4 -5 -13 -11 -23 -12 -23 -2 0 -3 45 -3 100 0 89 2 100 20 110 l20
11 -20 -6 c-15 -4 -13 1 10 20 17 15 23 24 15 20 -12 -5 -12 -4 1 7 9 7 14 19
12 26 -3 8 2 10 14 6 15 -5 15 -4 3 5 -12 8 -19 5 -33 -12 -18 -22 -18 -21 -2
8 19 35 51 40 78 13 19 -19 22 -38 6 -38 -5 0 -7 -6 -3 -12 4 -7 -1 -5 -12 4
-19 17 -20 16 -21 -5 -2 -17 0 -19 7 -7 15 24 13 -10 -2 -43 -17 -36 -28 -34
-23 3 2 17 0 28 -6 24 -5 -3 -7 -10 -4 -15 4 -5 2 -9 -4 -9 -6 0 -7 -7 -4 -17
5 -12 3 -14 -7 -8 -9 5 -11 4 -6 -3 4 -8 0 -12 -11 -12 -15 0 -15 -2 -4 -9 10
-7 19 -4 28 7 17 23 16 11 -3 -26 -8 -18 -20 -32 -25 -32 -5 0 -9 -13 -9 -30
0 -16 4 -30 10 -30 5 0 12 -11 16 -25 3 -14 11 -25 17 -25 7 0 7 -4 -1 -12 -7
-7 -12 -17 -12 -22 0 -6 5 -4 10 4 7 11 10 11 10 2 0 -7 4 -11 8 -8 4 2 9 -4
9 -15 2 -21 -13 -26 -19 -7 -3 8 -6 7 -10 -3 -4 -11 3 -15 29 -16 20 0 39 -7
44 -14 11 -18 11 -70 -1 -89 -6 -10 -9 -5 -8 18 1 18 -2 35 -5 39 -4 3 -7 -10
-7 -30 l0 -37 -39 26 c-29 18 -38 31 -36 46 4 17 2 18 -11 7 -12 -10 -19 -9
-37 9 -12 12 -16 22 -9 22 6 0 12 7 12 15 0 18 -20 20 -20 3 0 -7 -5 -5 -11 5
-5 9 -19 17 -30 17 -24 0 -115 -96 -111 -117 2 -11 -2 -14 -13 -9 -9 3 -14 2
-10 -3 3 -5 -2 -17 -11 -25 -11 -12 -12 -16 -2 -16 10 0 11 -2 0 -8 -7 -5 -10
-16 -7 -24 4 -9 -1 -28 -10 -42 -9 -14 -14 -30 -10 -36 3 -5 1 -10 -6 -10 -7
0 -10 -11 -7 -29 3 -23 0 -31 -15 -35 -13 -3 -18 -10 -14 -20 4 -9 1 -16 -4
-16 -6 0 -9 -8 -6 -19 2 -11 -3 -24 -13 -31 -11 -8 -15 -20 -12 -33 4 -15 2
-18 -9 -12 -11 6 -11 5 -2 -5 8 -9 9 -20 2 -38 -8 -21 -7 -29 7 -39 10 -7 14
-16 11 -20 -8 -8 -36 26 -37 45 0 7 -5 10 -11 7 -6 -4 -8 -9 -5 -12 3 -3 -2
-12 -10 -20 -17 -17 -14 -49 4 -46 7 2 12 -3 12 -11 0 -9 -7 -13 -18 -11 -28
5 -48 -16 -66 -69 -9 -26 -23 -55 -32 -63 -16 -17 -12 -28 8 -21 7 3 17 6 22
6 17 1 25 26 13 41 -10 12 -9 13 2 6 11 -6 13 -3 8 17 -6 22 -3 25 16 24 16
-1 21 4 19 17 -2 11 4 17 17 17 11 0 22 6 24 13 5 11 11 -26 8 -46 -2 -10 17
-9 24 2 3 5 1 12 -5 16 -12 7 -14 25 -2 25 9 0 32 -49 32 -68 0 -19 -1 -20
161 91 79 54 222 152 318 217 l174 119 36 -15 c20 -9 43 -18 51 -21 8 -4 22
-12 31 -20 9 -8 26 -15 38 -16 11 -1 21 -5 21 -9 0 -4 8 -8 18 -8 9 0 28 -9
42 -20 30 -23 46 -25 57 -6 7 12 11 12 27 0 11 -7 17 -17 13 -20 -4 -4 -13 -1
-22 6 -8 7 -15 8 -15 2 0 -8 26 -23 153 -84 16 -8 17 7 17 229 0 131 -4 243
-8 249 -4 6 -15 13 -25 17 -10 4 -15 11 -12 17 3 5 1 10 -5 10 -6 0 -19 8 -30
18 -10 9 -43 37 -74 62 -30 25 -55 49 -56 54 0 5 9 1 19 -8 13 -12 21 -14 26
-6 4 6 1 9 -7 8 -9 -2 -14 11 -16 40 -2 23 -7 40 -13 37 -5 -4 -6 -17 -3 -31
4 -14 2 -24 -5 -24 -6 0 -12 6 -12 13 -1 6 -2 19 -3 27 -1 8 2 25 6 38 6 16 3
24 -8 29 -8 3 -13 12 -10 19 3 8 1 14 -5 14 -8 0 -8 50 0 100 1 3 6 -2 12 -10
9 -13 10 -13 6 0 -2 8 -11 14 -21 12 -21 -4 -22 34 -1 42 11 4 14 15 11 33 -2
16 -5 36 -5 46 -1 10 -6 15 -12 12 -6 -4 -8 -13 -5 -21 3 -8 1 -14 -4 -14 -10
0 -14 21 -11 48 2 9 -144 12 -698 12 l-700 0 -12 -40 c-7 -22 -16 -40 -21 -40
-11 0 -10 13 1 25 5 6 12 21 16 34 6 20 5 22 -11 13 -11 -6 -19 -19 -19 -29 0
-10 -6 -17 -12 -15 -7 1 -13 -5 -13 -14 0 -8 4 -12 10 -9 14 8 0 -27 -15 -40
-10 -8 -10 -13 0 -22 10 -9 14 -7 20 14 3 14 8 23 11 21 2 -3 -1 -19 -7 -37
-7 -20 -14 -28 -19 -21 -4 6 -17 12 -29 13 -13 1 -20 6 -17 14 3 7 1 15 -4 18
-4 3 -7 -6 -5 -20 3 -31 -11 -43 -20 -16 -3 11 -22 36 -41 55 -18 18 -34 42
-34 51 0 38 -28 44 -192 45 -87 0 -158 -2 -158 -5z m1990 -85 c6 -11 7 -20 2
-20 -6 0 -12 9 -15 20 -3 11 -3 20 -1 20 2 0 8 -9 14 -20z m-1504 -93 c8 3 14
0 14 -6 0 -6 -4 -11 -10 -11 -5 0 -7 -7 -4 -15 4 -8 1 -15 -5 -15 -6 0 -13 11
-17 25 -3 14 -11 22 -17 18 -6 -4 -7 -1 -2 6 5 9 11 9 17 3 6 -6 17 -8 24 -5z
m-36 -106 c0 -6 -4 -13 -10 -16 -5 -3 -10 1 -10 9 0 9 5 16 10 16 6 0 10 -4
10 -9z m205 -1 c3 -5 -3 -10 -14 -10 -12 0 -21 5 -21 10 0 6 6 10 14 10 8 0
18 -4 21 -10z m50 -10 c3 -5 -3 -10 -15 -10 -12 0 -18 5 -15 10 3 6 10 10 15
10 5 0 12 -4 15 -10z m40 -18 c-3 -3 -11 0 -18 7 -9 10 -8 11 6 5 10 -3 15 -9
12 -12z m165 -22 c0 -5 -7 -10 -15 -10 -8 0 -15 5 -15 10 0 6 7 10 15 10 8 0
15 -4 15 -10z m45 -10 c3 -5 -1 -10 -9 -10 -8 0 -18 5 -21 10 -3 6 1 10 9 10
8 0 18 -4 21 -10z m42 -6 c-3 -3 -12 -4 -19 -1 -8 3 -5 6 6 6 11 1 17 -2 13
-5z m-470 -86 c-3 -8 -6 -5 -6 6 -1 11 2 17 5 13 3 -3 4 -12 1 -19z m700 -10
c-3 -8 -6 -5 -6 6 -1 11 2 17 5 13 3 -3 4 -12 1 -19z m-877 2 c0 -5 -5 -10
-11 -10 -5 0 -7 5 -4 10 3 6 8 10 11 10 2 0 4 -4 4 -10z m197 -75 c0 -24 -4
-42 -9 -39 -10 7 -7 84 3 84 4 0 6 -20 6 -45z m20 -162 c1 -24 1 -25 -7 -8
-11 26 -12 35 -2 35 4 0 8 -12 9 -27z m-367 -3 c0 -5 -4 -10 -10 -10 -5 0 -10
5 -10 10 0 6 5 10 10 10 6 0 10 -4 10 -10z m377 -102 c-3 -7 -5 -2 -5 12 0 14
2 19 5 13 2 -7 2 -19 0 -25z m20 -64 c1 -30 -2 -42 -8 -33 -11 18 -12 79 -1
79 5 0 9 -21 9 -46z m11 -60 c-4 -3 -2 -20 3 -37 8 -30 7 -30 -6 -13 -20 26
-18 56 3 56 3 0 3 -3 0 -6z m9 -111 c-3 -10 -5 -4 -5 12 0 17 2 24 5 18 2 -7
2 -21 0 -30z m10 -80 c-3 -10 -5 -4 -5 12 0 17 2 24 5 18 2 -7 2 -21 0 -30z
m21 -75 c1 -15 -2 -28 -8 -28 -5 0 -9 10 -9 23 1 12 -2 31 -7 42 -7 17 -6 18
7 5 8 -7 16 -26 17 -42z m409 26 c-3 -3 -12 -4 -19 -1 -8 3 -5 6 6 6 11 1 17
-2 13 -5z m43 -39 c0 -8 -4 -15 -9 -15 -13 0 -22 16 -14 24 11 11 23 6 23 -9z
m-84 -38 c0 -13 -6 -24 -13 -24 -8 0 -8 7 0 24 13 29 15 29 13 0z m-359 -39
c2 -17 0 -19 -7 -8 -5 8 -6 18 -4 22 8 12 10 10 11 -14z m-357 -68 c0 -5 -4
-10 -10 -10 -5 0 -10 5 -10 10 0 6 5 10 10 10 6 0 10 -4 10 -10z m39 -54 c-3
-3 -11 5 -18 17 -13 21 -12 21 5 5 10 -10 16 -20 13 -22z m611 -11 c0 -7 -30
-13 -34 -7 -3 4 4 9 15 9 10 1 19 0 19 -2z m-273 -57 c-3 -8 -6 -5 -6 6 -1 11
2 17 5 13 3 -3 4 -12 1 -19z m163 -15 c-8 -3 -18 -10 -21 -15 -3 -5 -9 -3 -11
4 -4 9 3 14 21 15 14 1 19 -1 11 -4z m-419 -40 c13 -16 12 -17 -3 -4 -10 7
-18 15 -18 17 0 8 8 3 21 -13z m277 -10 c1 -22 0 -24 -8 -13 -12 18 -13 40 -2
40 4 0 9 -12 10 -27z m62 3 c0 -11 -33 -36 -41 -31 -16 10 -10 23 14 28 12 2
23 5 25 6 1 0 2 -1 2 -3z m794 -20 c-3 -9 -10 -13 -16 -10 -5 3 -4 12 3 20 15
18 22 13 13 -10z m-1154 -11 c0 -2 -9 -9 -19 -15 -14 -7 -22 -7 -27 2 -4 6 -3
8 2 5 6 -3 16 -2 24 4 17 10 20 11 20 4z m813 -38 c3 -8 -1 -14 -8 -14 -7 0
-11 6 -8 14 3 7 6 13 8 13 2 0 5 -6 8 -13z m-50 -50 c3 -8 -1 -14 -8 -14 -7 0
-11 6 -8 14 3 7 6 13 8 13 2 0 5 -6 8 -13z m-8 -207 c3 -6 -1 -7 -9 -4 -18 7
-21 14 -7 14 6 0 13 -4 16 -10z m45 -20 c8 -5 11 -10 5 -10 -5 0 -17 5 -25 10
-8 5 -10 10 -5 10 6 0 17 -5 25 -10z m-646 -84 c-3 -9 -10 -16 -15 -16 -5 0
-4 9 3 20 14 22 21 20 12 -4z"/>
<path d="M4526 1974 c7 -37 16 -47 12 -12 -2 15 -7 30 -11 34 -3 3 -4 -6 -1
-22z"/>
<path d="M4175 1960 c-3 -5 -1 -10 4 -10 6 0 11 5 11 10 0 6 -2 10 -4 10 -3 0
-8 -4 -11 -10z"/>
<path d="M4556 1934 c7 -37 16 -47 12 -12 -2 15 -7 30 -11 34 -3 3 -4 -6 -1
-22z"/>
<path d="M2345 1926 c2 -12 4 -25 4 -29 1 -5 7 -5 14 -1 9 6 9 5 0 -7 -14 -18
-3 -39 22 -43 10 -1 20 -13 22 -27 3 -13 6 -30 7 -37 3 -14 14 -17 24 -6 4 4
1 4 -7 -1 -10 -6 -12 -4 -7 4 5 7 11 9 15 6 6 -6 7 -10 10 -36 0 -5 7 -7 14
-3 8 5 8 2 -2 -9 -10 -13 -10 -17 -1 -17 7 0 10 -7 7 -15 -7 -18 9 -30 19 -14
4 8 3 9 -4 5 -8 -5 -10 -2 -6 9 7 17 14 15 18 -7 1 -7 5 -19 9 -25 5 -7 5 -17
2 -23 -3 -5 3 -10 14 -10 30 0 35 19 12 44 -12 12 -21 28 -21 34 0 7 -4 12
-10 12 -5 0 -17 15 -26 33 -9 17 -20 34 -24 37 -14 10 -89 133 -85 140 2 4 -2
7 -10 7 -9 0 -13 -8 -10 -21z m55 -61 c0 -12 -19 -12 -23 0 -4 9 -1 12 9 8 7
-3 14 -7 14 -8z"/>
<path d="M4581 1914 c0 -11 3 -14 6 -6 3 7 2 16 -1 19 -3 4 -6 -2 -5 -13z"/>
<path d="M4360 1866 c0 -9 5 -16 10 -16 6 0 10 4 10 9 0 6 -4 13 -10 16 -5 3
-10 -1 -10 -9z"/>
<path d="M500 1839 c0 -20 16 -43 23 -32 3 4 -1 17 -9 28 -10 13 -14 15 -14 4z"/>
<path d="M2461 1845 c-1 -15 37 -61 44 -54 3 4 -5 20 -19 35 -14 16 -25 25
-25 19z"/>
<path d="M4466 1817 c3 -10 9 -15 12 -12 3 3 0 11 -7 18 -10 9 -11 8 -5 -6z"/>
<path d="M5670 1785 c0 -5 5 -17 10 -25 5 -8 10 -10 10 -5 0 6 -5 17 -10 25
-5 8 -10 11 -10 5z"/>
<path d="M6166 1767 c3 -10 9 -15 12 -12 3 3 0 11 -7 18 -10 9 -11 8 -5 -6z"/>
<path d="M2545 1760 c3 -5 8 -10 11 -10 2 0 4 5 4 10 0 6 -5 10 -11 10 -5 0
-7 -4 -4 -10z"/>
<path d="M4570 1760 c0 -5 5 -10 10 -10 6 0 10 5 10 10 0 6 -4 10 -10 10 -5 0
-10 -4 -10 -10z"/>
<path d="M530 1663 c0 -3 7 -11 16 -20 12 -13 18 -13 27 -3 9 10 9 11 0 6 -8
-4 -13 -1 -13 7 0 7 -7 14 -15 14 -8 0 -15 -2 -15 -4z"/>
<path d="M2540 1634 c-9 -11 -10 -15 -2 -10 11 6 17 -11 13 -36 0 -5 8 -8 20
-8 11 0 17 -4 14 -10 -3 -5 0 -7 9 -4 10 4 15 -1 15 -13 1 -45 9 -66 25 -69
23 -3 25 -6 29 -34 2 -13 12 -24 21 -26 23 -3 25 -5 29 -35 2 -13 9 -25 15
-25 7 -1 18 -2 26 -3 8 0 12 -10 11 -24 -2 -15 2 -24 11 -24 10 0 11 4 3 13
-8 9 -6 11 8 8 13 -4 18 -15 18 -37 0 -21 4 -31 13 -29 7 1 12 -5 10 -15 -2
-13 3 -17 16 -15 11 2 15 -1 11 -7 -3 -6 -2 -11 4 -11 14 0 8 42 -9 64 -8 10
-27 31 -42 46 -16 16 -28 33 -28 38 0 6 -8 17 -18 24 -10 7 -27 26 -38 43 -18
27 -37 50 -85 100 -10 12 -19 25 -19 30 0 6 -15 27 -33 49 -31 36 -34 37 -47
20z m115 -136 c5 -4 0 -6 -12 -6 -13 1 -19 7 -16 15 3 8 8 10 12 6 3 -4 10
-11 16 -15z m55 -63 c0 -2 -9 -3 -19 -2 -11 0 -18 5 -15 9 4 6 34 0 34 -7z
m50 -60 c0 -2 -9 -3 -19 -2 -11 0 -18 5 -15 9 4 6 34 0 34 -7z m98 -111 c1 -1
-4 -6 -12 -13 -11 -9 -14 -8 -12 6 0 10 -5 17 -12 15 -8 -1 -11 2 -7 8 5 8 12
7 23 -2 10 -7 18 -13 20 -14z"/>
<path d="M5590 1604 c0 -8 5 -12 10 -9 6 3 10 10 10 16 0 5 -4 9 -10 9 -5 0
-10 -7 -10 -16z"/>
<path d="M4093 1555 c-10 -10 -9 -16 3 -26 8 -7 13 -18 10 -25 -3 -7 0 -16 6
-20 7 -4 9 7 5 35 -5 49 -8 53 -24 36z"/>
<path d="M6264 1549 c-3 -6 -2 -15 3 -20 5 -5 9 -1 9 11 0 23 -2 24 -12 9z"/>
<path d="M6305 1533 c3 -3 0 -12 -5 -18 -7 -9 -6 -16 3 -23 10 -8 12 -5 12 14
-1 13 -5 26 -8 29 -4 3 -5 2 -2 -2z"/>
<path d="M605 1472 c1 -20 5 -45 9 -54 4 -9 4 -22 0 -29 -4 -8 -3 -9 4 -5 7 4
11 18 10 31 -1 13 -5 22 -9 19 -4 -2 -6 12 -5 31 2 20 0 37 -4 40 -3 2 -6 -13
-5 -33z"/>
<path d="M6333 1489 c-1 -12 4 -19 15 -18 11 0 12 2 4 6 -6 2 -10 9 -7 13 3 5
2 11 -3 14 -4 2 -9 -4 -9 -15z"/>
<path d="M261 1414 c0 -11 3 -14 6 -6 3 7 2 16 -1 19 -3 4 -6 -2 -5 -13z"/>
<path d="M4115 1390 c3 -5 11 -10 16 -10 6 0 7 5 4 10 -3 6 -11 10 -16 10 -6
0 -7 -4 -4 -10z"/>
<path d="M4131 1354 c0 -11 3 -14 6 -6 3 7 2 16 -1 19 -3 4 -6 -2 -5 -13z"/>
<path d="M627 1309 c4 -13 8 -18 11 -10 2 7 -1 18 -6 23 -8 8 -9 4 -5 -13z"/>
<path d="M5306 1275 c3 -28 1 -32 -19 -31 -12 0 -22 -3 -22 -9 0 -5 -4 -16 -8
-22 -5 -7 -6 -13 -3 -13 3 0 1 -11 -4 -25 -5 -14 -8 -25 -6 -25 3 0 11 -3 20
-6 11 -4 16 -1 16 10 0 9 11 34 24 55 14 21 22 42 19 45 -3 3 2 15 12 26 18
20 18 21 0 14 -11 -5 -16 -4 -12 3 3 5 0 10 -7 10 -10 0 -13 -10 -10 -32z m-6
-41 c0 -8 -19 -13 -24 -6 -3 5 1 9 9 9 8 0 15 -2 15 -3z"/>
<path d="M4289 1288 c0 -2 -2 -16 -4 -31 l-4 -29 19 22 c19 22 19 40 -1 40 -5
0 -9 -1 -10 -2z"/>
<path d="M643 1223 c1 -14 7 -28 13 -30 6 -2 10 7 8 19 -1 13 -3 26 -3 31 -1
4 -5 7 -10 7 -6 0 -9 -12 -8 -27z"/>
<path d="M2883 1221 c2 -18 8 -36 14 -39 5 -4 13 -14 16 -22 3 -8 5 2 3 23 -2
21 -11 46 -20 55 -15 15 -16 14 -13 -17z"/>
<path d="M4255 1240 c-3 -5 -1 -10 4 -10 6 0 11 5 11 10 0 6 -2 10 -4 10 -3 0
-8 -4 -11 -10z"/>
<path d="M4212 1231 c0 -3 0 -21 -1 -39 -1 -29 -4 -32 -21 -27 -11 4 -20 2
-20 -4 0 -21 32 -10 61 20 32 35 35 40 17 37 -7 -2 -12 2 -11 8 1 6 -4 11 -12
11 -8 0 -14 -3 -13 -6z"/>
<path d="M460 1214 c0 -8 5 -12 10 -9 6 4 8 11 5 16 -9 14 -15 11 -15 -7z"/>
<path d="M1898 1223 c6 -2 18 -2 25 0 6 3 1 5 -13 5 -14 0 -19 -2 -12 -5z"/>
<path d="M1948 1223 c7 -3 16 -2 19 1 4 3 -2 6 -13 5 -11 0 -14 -3 -6 -6z"/>
<path d="M2204 1219 c-3 -6 -2 -15 3 -20 5 -5 9 -1 9 11 0 23 -2 24 -12 9z"/>
<path d="M1986 1205 c-9 -26 -7 -32 5 -12 6 10 9 21 6 23 -2 3 -7 -2 -11 -11z"/>
<path d="M2270 1212 c0 -14 9 -18 55 -27 46 -9 49 -10 63 -18 6 -5 12 -5 12 0
0 4 5 1 10 -7 7 -11 10 -11 10 -2 0 7 10 17 23 22 17 7 18 9 5 9 -10 1 -19 0
-20 -1 -2 -1 -14 4 -27 11 -14 8 -21 9 -17 2 5 -7 -3 -11 -21 -10 -25 0 -26 1
-8 9 16 7 17 9 3 9 -9 1 -19 -3 -22 -8 -7 -11 -48 -2 -58 13 -5 7 -8 7 -8 -2z
m154 -34 c-3 -4 -11 -5 -19 -1 -21 7 -19 12 4 10 11 0 18 -5 15 -9z"/>
<path d="M2246 1185 c4 -8 8 -15 10 -15 2 0 4 7 4 15 0 8 -4 15 -10 15 -5 0
-7 -7 -4 -15z"/>
<path d="M1665 1180 c-3 -6 1 -7 9 -4 18 7 21 14 7 14 -6 0 -13 -4 -16 -10z"/>
<path d="M4782 1165 c0 -16 2 -22 5 -12 2 9 2 23 0 30 -3 6 -5 -1 -5 -18z"/>
<path d="M2932 1154 c2 -14 11 -30 23 -35 19 -10 19 -9 2 4 -12 10 -14 17 -8
22 15 9 14 22 -4 29 -11 4 -14 -1 -13 -20z"/>
<path d="M1542 1161 c2 -8 14 -15 25 -16 14 -1 19 3 16 12 -6 17 -23 17 -23 1
0 -9 -4 -8 -11 2 -8 12 -10 12 -7 1z"/>
<path d="M2274 1161 c3 -5 16 -11 28 -14 22 -6 22 -5 4 8 -22 17 -40 20 -32 6z"/>
<path d="M2430 1160 c0 -5 9 -10 19 -10 11 0 23 -5 26 -11 4 -6 13 -8 20 -5 7
2 17 0 22 -5 5 -5 21 -10 36 -11 15 -1 27 -6 27 -10 0 -4 6 -8 13 -8 8 0 35
-11 61 -24 31 -16 46 -19 42 -10 -3 7 0 16 6 20 7 4 8 3 4 -4 -5 -8 -1 -10 9
-5 13 4 14 8 4 14 -7 4 -20 4 -28 0 -9 -5 -25 -4 -36 0 -18 9 -18 9 2 5 13 -2
25 0 28 4 3 5 -11 7 -31 5 -23 -2 -43 2 -51 11 -8 8 -26 14 -41 14 -15 0 -34
5 -42 10 -16 11 -15 11 65 -5 24 -4 27 -3 12 5 -9 6 -42 12 -72 13 -30 1 -55
5 -55 9 0 5 -9 8 -20 8 -11 0 -20 -4 -20 -10z"/>
<path d="M1939 1145 c-1 -3 -2 -8 -3 -12 -1 -5 -5 -14 -9 -20 -5 -7 -6 -13 -3
-13 2 0 1 -14 -4 -30 -5 -19 -5 -28 1 -25 5 4 9 15 9 25 0 10 4 22 10 25 5 3
9 17 8 30 -2 23 -6 32 -9 20z"/>
<path d="M4089 1137 c6 -8 7 -18 3 -22 -4 -5 -1 -5 6 -1 10 6 10 11 1 22 -6 8
-14 14 -16 14 -3 0 0 -6 6 -13z"/>
<path d="M5212 1103 c-3 -39 -14 -58 -34 -58 -6 0 -12 -7 -14 -15 -1 -8 -5
-31 -9 -50 -4 -19 -8 -42 -9 -50 -2 -8 -9 -15 -17 -15 -8 0 -14 -4 -14 -10 0
-5 -3 -14 -6 -20 -3 -5 -5 -27 -4 -47 1 -21 -2 -39 -7 -39 -4 -1 -13 -2 -20
-3 -19 -2 -33 -122 -17 -147 6 -10 9 -11 10 -1 3 27 4 31 11 37 4 4 4 13 2 20
-3 7 0 16 5 20 6 3 9 11 6 16 -4 5 -2 9 4 9 5 0 13 15 16 33 4 17 10 37 13 42
4 6 8 19 9 30 2 10 7 22 11 25 4 3 13 23 21 45 7 22 19 47 26 55 10 13 26 57
29 82 1 4 9 17 19 28 24 28 22 50 -6 50 -19 0 -23 -6 -25 -37z m-2 -57 c0 -2
-6 -9 -14 -15 -11 -9 -16 -9 -22 0 -4 7 -3 9 4 5 6 -3 13 -2 17 4 6 10 15 14
15 6z m-110 -262 c0 -8 -19 -13 -24 -6 -3 5 1 9 9 9 8 0 15 -2 15 -3z m-33
-86 c-3 -8 -6 -5 -6 6 -1 11 2 17 5 13 3 -3 4 -12 1 -19z"/>
<path d="M5291 1114 c0 -11 3 -14 6 -6 3 7 2 16 -1 19 -3 4 -6 -2 -5 -13z"/>
<path d="M580 1113 c0 -6 8 -17 18 -24 16 -13 16 -13 2 6 -8 11 -16 22 -17 24
-2 2 -3 0 -3 -6z"/>
<path d="M587 1069 c7 -7 15 -10 18 -7 3 3 -2 9 -12 12 -14 6 -15 5 -6 -5z"/>
<path d="M3000 1070 c-9 -6 -10 -10 -3 -10 6 0 15 5 18 10 8 12 4 12 -15 0z"/>
<path d="M2710 1062 c0 -10 73 -43 100 -45 11 -1 20 -4 20 -7 0 -5 59 -34 71
-35 3 0 13 -8 23 -17 10 -10 20 -18 22 -18 3 0 0 8 -5 18 -5 9 -11 22 -13 27
-1 6 -14 9 -28 7 -20 -2 -22 -1 -10 9 13 9 12 10 -3 5 -10 -3 -25 1 -33 9 -9
8 -23 15 -32 16 -28 1 -53 7 -60 14 -6 6 42 0 83 -11 20 -5 20 -5 1 7 -11 7
-42 12 -68 12 -26 0 -48 4 -48 9 0 4 -4 8 -10 8 -5 0 -10 -4 -10 -8z"/>
<path d="M598 1043 c7 -3 16 -2 19 1 4 3 -2 6 -13 5 -11 0 -14 -3 -6 -6z"/>
<path d="M585 1020 c4 -6 1 -17 -5 -25 -15 -18 1 -20 18 -3 17 17 15 38 -4 38
-8 0 -12 -5 -9 -10z"/>
<path d="M4103 1005 c0 -8 4 -15 9 -15 4 0 8 7 8 15 0 8 -4 15 -8 15 -5 0 -9
-7 -9 -15z"/>
<path d="M1873 973 c-1 -16 1 -21 4 -13 3 8 10 21 16 28 6 8 5 12 -5 12 -8 0
-14 -11 -15 -27z"/>
<path d="M571 954 c0 -11 3 -14 6 -6 3 7 2 16 -1 19 -3 4 -6 -2 -5 -13z"/>
<path d="M4180 950 c0 -6 7 -10 15 -10 8 0 15 2 15 4 0 2 -7 6 -15 10 -8 3
-15 1 -15 -4z"/>
<path d="M2961 934 c0 -11 3 -14 6 -6 3 7 2 16 -1 19 -3 4 -6 -2 -5 -13z"/>
<path d="M2981 934 c0 -11 3 -14 6 -6 3 7 2 16 -1 19 -3 4 -6 -2 -5 -13z"/>
<path d="M5804 857 c-81 -81 -103 -117 -73 -117 4 0 6 6 3 13 -3 8 2 14 11 15
8 1 22 3 30 4 8 1 12 5 9 9 -6 11 34 51 45 45 4 -3 8 0 9 7 3 34 10 51 23 55
11 3 11 1 -1 -7 -9 -6 -10 -11 -3 -11 6 0 14 -10 16 -22 3 -13 5 -5 5 17 0 56
1 62 10 47 5 -7 7 -33 6 -57 -1 -26 1 -43 7 -40 5 4 16 -1 25 -9 12 -12 12
-16 2 -16 -8 0 -5 -5 6 -11 11 -7 43 -9 80 -6 42 4 53 3 36 -3 -19 -7 -14 -8
21 -4 26 2 59 0 73 -5 14 -6 28 -6 31 -2 2 5 -17 12 -43 17 -51 8 -61 10 -64
14 -3 2 -36 7 -85 12 -7 1 -13 6 -13 12 0 6 -4 5 -9 -3 -7 -11 -13 -10 -30 6
-17 16 -20 29 -17 76 2 38 -1 57 -8 56 -6 0 -52 -41 -102 -92z m26 -12 c0 -2
-10 -9 -22 -15 -22 -11 -22 -10 -4 4 21 17 26 19 26 11z m-50 -50 c0 -2 -10
-9 -22 -15 -22 -11 -22 -10 -4 4 21 17 26 19 26 11z m223 -12 c-13 -2 -33 -2
-45 0 -13 2 -3 4 22 4 25 0 35 -2 23 -4z"/>
<path d="M4076 924 c-9 -23 -4 -24 17 -2 13 14 14 18 3 18 -8 0 -17 -7 -20
-16z"/>
<path d="M4230 931 c0 -6 4 -13 10 -16 6 -3 7 1 4 9 -7 18 -14 21 -14 7z"/>
<path d="M2503 923 c9 -2 25 -2 35 0 9 3 1 5 -18 5 -19 0 -27 -2 -17 -5z"/>
<path d="M4202 916 c7 -8 15 -12 17 -11 5 6 -10 25 -20 25 -5 0 -4 -6 3 -14z"/>
<path d="M4054 875 c-9 -21 -2 -26 13 -10 8 9 9 16 3 20 -6 3 -13 -1 -16 -10z"/>
<path d="M1551 864 c0 -11 3 -14 6 -6 3 7 2 16 -1 19 -3 4 -6 -2 -5 -13z"/>
<path d="M4831 854 c0 -11 3 -14 6 -6 3 7 2 16 -1 19 -3 4 -6 -2 -5 -13z"/>
<path d="M4300 811 c0 -6 4 -13 10 -16 6 -3 7 1 4 9 -7 18 -14 21 -14 7z"/>
<path d="M6189 763 c0 -5 -2 -15 -4 -24 -2 -12 5 -15 32 -14 19 0 36 -2 39 -6
6 -10 144 -6 144 4 0 5 -4 6 -8 3 -5 -3 -26 0 -48 6 -21 5 -53 11 -70 12 -16
2 -35 6 -41 9 -7 4 -14 3 -18 -3 -3 -5 2 -10 12 -11 10 0 13 -3 6 -5 -7 -3
-20 -1 -30 5 -10 6 -12 11 -5 11 14 0 17 20 2 20 -5 0 -10 -3 -11 -7z m107
-41 c-16 -2 -32 0 -37 5 -5 5 7 7 29 4 34 -5 35 -6 8 -9z"/>
<path d="M4345 750 c3 -5 8 -10 11 -10 2 0 4 5 4 10 0 6 -5 10 -11 10 -5 0 -7
-4 -4 -10z"/>
<path d="M5690 744 c0 -8 -4 -13 -9 -10 -22 14 -37 -42 -16 -61 4 -4 5 -2 1 5
-5 8 0 12 13 12 14 0 19 5 15 15 -4 8 -2 15 3 15 5 0 9 9 10 20 1 11 -2 20 -8
20 -5 0 -9 -7 -9 -16z"/>
<path d="M483 744 c3 -4 2 -15 -4 -25 -6 -11 -6 -19 0 -19 9 0 21 23 21 41 0
5 -5 9 -12 9 -6 0 -8 -3 -5 -6z"/>
<path d="M3261 710 c-5 -16 -8 -30 -6 -30 2 0 10 14 19 30 8 17 11 30 6 30 -4
0 -13 -13 -19 -30z"/>
<path d="M5240 710 c0 -5 6 -10 13 -10 8 0 8 -3 -2 -9 -8 -5 -20 -7 -28 -4 -8
3 -13 2 -12 -3 4 -25 -2 -36 -19 -32 -11 3 -30 -1 -43 -9 -13 -8 -16 -12 -7
-9 10 3 20 1 24 -5 3 -6 19 0 39 15 19 15 38 26 44 26 6 0 11 3 12 8 0 4 2 15
4 25 2 9 -3 17 -11 17 -8 0 -14 -4 -14 -10z"/>
<path d="M5630 686 c0 -8 -7 -16 -15 -18 -8 -2 -60 -48 -115 -102 -71 -71 -97
-103 -90 -111 5 -7 8 -14 5 -17 -3 -2 1 -5 8 -5 8 0 14 5 15 11 3 29 9 45 25
60 9 10 17 14 17 9 0 -5 -5 -14 -10 -19 -7 -7 -6 -11 4 -11 8 0 13 3 11 7 -7
12 19 41 40 44 12 2 19 10 17 20 -2 9 2 16 8 16 6 0 9 4 5 9 -3 5 -1 12 4 15
5 4 13 1 17 -5 5 -8 3 -9 -6 -4 -9 5 -11 4 -6 -4 11 -17 37 6 29 25 -3 8 0 14
7 14 6 0 9 4 5 9 -3 5 -1 12 4 15 5 4 13 1 17 -5 5 -8 3 -9 -6 -4 -9 6 -11 4
-6 -4 9 -13 18 -8 22 12 2 7 5 22 8 35 3 12 1 22 -5 22 -5 0 -9 -6 -9 -14z
m-96 -133 c4 -10 4 -14 0 -11 -4 4 -16 2 -28 -4 l-21 -11 20 21 c11 11 21 21
21 21 1 1 5 -7 8 -16z"/>
<path d="M1729 688 c-5 -18 -6 -59 -2 -54 7 6 13 56 7 56 -2 0 -4 -1 -5 -2z"/>
<path d="M2505 677 c-6 -7 -46 -54 -90 -106 -134 -156 -141 -165 -148 -183 -4
-11 -2 -17 6 -15 7 1 11 -7 10 -20 -2 -13 2 -23 7 -23 6 0 10 -7 10 -15 0 -18
17 -20 22 -3 3 7 7 5 11 -6 4 -10 3 -15 -3 -11 -6 3 -10 2 -10 -2 0 -5 44 -8
98 -8 125 2 134 3 127 15 -3 6 0 10 8 10 8 0 14 -7 13 -16 0 -9 5 -19 12 -21
6 -3 12 0 12 7 0 6 -5 8 -12 4 -6 -4 -8 -3 -5 3 4 6 18 8 32 5 21 -3 27 0 32
17 3 11 8 21 12 21 10 0 9 103 -1 115 -5 5 -17 21 -28 34 -11 14 -19 29 -17
35 2 6 -7 21 -20 34 -13 12 -25 32 -26 45 -1 12 -7 28 -14 35 -7 8 -11 18 -8
23 4 5 -1 6 -11 2 -13 -5 -15 -2 -9 15 7 25 5 27 -10 9z m-90 -368 c4 -6 23
-8 42 -6 19 3 31 2 28 -2 -4 -3 -33 -6 -65 -7 -44 0 -57 3 -53 13 6 16 39 17
48 2z"/>
<path d="M1860 660 c0 -5 7 -10 16 -10 8 0 12 5 9 10 -3 6 -10 10 -16 10 -5 0
-9 -4 -9 -10z"/>
<path d="M1909 658 c-7 -19 -8 -68 -2 -68 5 0 8 16 9 35 0 29 -3 44 -7 33z"/>
<path d="M2556 651 c-3 -5 1 -22 9 -37 l15 -29 -2 28 c-1 15 -6 27 -11 27 -4
0 -5 5 -2 10 3 6 4 10 1 10 -3 0 -7 -4 -10 -9z"/>
<path d="M5888 643 c7 -3 16 -2 19 1 4 3 -2 6 -13 5 -11 0 -14 -3 -6 -6z"/>
<path d="M440 636 c0 -2 7 -6 15 -10 8 -3 15 -1 15 4 0 6 -7 10 -15 10 -8 0
-15 -2 -15 -4z"/>
<path d="M4437 619 c7 -7 15 -10 18 -7 3 3 -2 9 -12 12 -14 6 -15 5 -6 -5z"/>
<path d="M5143 623 c-18 -7 -16 -23 2 -23 8 0 15 7 15 15 0 8 -1 15 -2 14 -2
0 -9 -3 -15 -6z"/>
<path d="M5920 614 c0 -8 5 -14 10 -14 6 0 10 6 10 13 0 8 3 7 10 -3 5 -8 12
-11 16 -7 10 9 1 17 -25 22 -13 2 -21 -1 -21 -11z"/>
<path d="M1 380 l-1 -246 64 -39 c36 -22 63 -42 60 -44 -2 -3 -10 1 -16 7 -18
18 -28 14 -25 -10 2 -12 10 -24 18 -26 11 -3 11 -1 -1 8 -13 9 -12 10 5 7 11
-2 19 -8 18 -15 -2 -8 4 -9 22 -2 19 7 23 6 18 -5 -3 -8 0 -15 6 -15 6 0 11 5
11 10 0 7 6 7 19 0 32 -16 54 -13 46 8 -4 9 -8 24 -10 32 -1 8 0 9 2 2 7 -19
19 -14 20 8 1 11 -4 20 -10 20 -7 0 -6 4 3 10 13 8 12 10 -4 10 -14 0 -17 5
-12 24 4 15 0 28 -9 36 -8 7 -12 16 -9 21 3 5 -2 9 -10 9 -9 0 -16 -6 -17 -12
0 -7 -7 2 -15 21 -8 18 -13 36 -10 38 3 3 8 -6 11 -20 5 -16 12 -24 21 -20 11
4 11 7 -1 19 -9 10 -12 25 -8 45 4 22 2 29 -8 27 -8 -2 -13 2 -12 9 2 7 -4 10
-12 7 -17 -7 -20 -24 -5 -24 6 0 10 -7 10 -15 0 -22 -17 -18 -23 6 -7 25 1 49
16 49 6 0 4 6 -5 13 -17 14 -33 52 -18 42 6 -3 10 1 10 9 0 9 -6 15 -12 13 -7
-1 -12 6 -12 16 1 10 -5 17 -15 17 -14 0 -14 2 -1 10 13 8 12 10 -4 10 -11 0
-16 5 -13 14 3 7 0 19 -6 26 -9 10 -9 11 1 6 7 -5 12 -1 12 9 0 9 -4 13 -10
10 -9 -6 -14 8 -11 28 0 4 -6 7 -14 7 -18 0 -20 17 -2 23 6 2 0 8 -15 12 -15
4 -29 14 -31 23 -3 10 -5 -93 -6 -228z m29 185 c0 -8 -2 -15 -4 -15 -2 0 -6 7
-10 15 -3 8 -1 15 4 15 6 0 10 -7 10 -15z m26 -62 c-3 -3 0 -13 6 -22 11 -14
10 -14 -4 -1 -9 8 -19 26 -23 40 -7 23 -7 23 10 7 10 -10 15 -21 11 -24z m50
-130 c-8 -8 -12 -3 -21 27 l-7 25 17 -23 c9 -13 14 -26 11 -29z m18 -39 c3 -8
2 -12 -4 -9 -6 3 -10 10 -10 16 0 14 7 11 14 -7z m81 -194 c-3 -5 -1 -10 4
-10 6 0 11 -8 11 -17 0 -15 -2 -14 -15 3 -17 23 -19 34 -4 34 5 0 7 -4 4 -10z"/>
<path d="M439 615 c-1 -5 -1 -13 0 -17 0 -5 -3 -8 -7 -8 -11 0 -13 -48 -2 -55
6 -3 7 1 4 10 -4 9 1 24 9 33 11 12 13 22 7 32 -5 8 -10 11 -11 5z"/>
<path d="M2603 569 c-1 -10 5 -31 13 -47 l14 -27 -2 28 c-1 15 -6 27 -11 27
-5 0 -7 7 -4 15 4 8 3 16 -1 19 -4 3 -9 -4 -9 -15z"/>
<path d="M6176 572 c-3 -4 4 -9 15 -9 23 -2 25 3 4 10 -8 4 -16 3 -19 -1z"/>
<path d="M1871 528 c-13 -27 -24 -74 -13 -64 7 8 8 13 11 42 0 8 5 13 9 10 4
-2 9 4 9 15 2 25 -1 24 -16 -3z"/>
<path d="M6351 528 c9 -7 21 -22 27 -33 10 -18 11 -17 8 9 -2 22 -9 30 -27 33
-21 3 -22 2 -8 -9z"/>
<path d="M2653 478 c-1 -12 3 -28 8 -35 6 -6 7 -18 3 -24 -4 -8 -3 -9 4 -5 9
6 10 42 1 54 -1 1 -2 6 -3 11 -2 20 -12 19 -13 -1z"/>
<path d="M3390 496 c0 -2 13 -6 29 -8 17 -2 28 -1 25 4 -5 8 -54 12 -54 4z"/>
<path d="M3461 464 c0 -11 3 -14 6 -6 3 7 2 16 -1 19 -3 4 -6 -2 -5 -13z"/>
<path d="M3482 458 c5 -35 17 -48 14 -14 -2 15 -6 30 -10 34 -4 3 -6 -5 -4
-20z"/>
<path d="M6359 458 c0 -7 -2 -21 -4 -31 -2 -11 -1 -16 3 -13 8 9 14 56 7 56
-3 0 -5 -6 -6 -12z"/>
<path d="M1781 404 c0 -11 3 -14 6 -6 3 7 2 16 -1 19 -3 4 -6 -2 -5 -13z"/>
<path d="M3532 398 c2 -15 7 -30 11 -34 3 -3 4 6 1 22 -7 37 -16 47 -12 12z"/>
<path d="M4466 398 c3 -5 10 -6 15 -3 13 9 11 12 -6 12 -8 0 -12 -4 -9 -9z"/>
<path d="M3155 389 c17 -7 15 -8 -10 -6 -20 1 -29 -3 -27 -11 1 -7 -2 -22 -8
-32 -7 -14 -7 -20 0 -20 5 0 10 -7 10 -16 0 -8 -5 -12 -10 -9 -7 4 -9 -2 -5
-18 5 -20 3 -24 -12 -23 -10 0 -19 -1 -20 -4 -1 -3 -6 -17 -12 -32 -7 -18 -7
-28 -1 -28 6 0 10 -5 10 -11 0 -5 -5 -7 -11 -3 -9 5 -10 -1 -5 -20 5 -19 3
-25 -4 -21 -6 4 -9 1 -8 -6 2 -7 -3 -13 -9 -14 -7 0 -13 -2 -12 -5 0 -3 -4
-17 -10 -31 -7 -19 -6 -30 2 -39 9 -10 9 -11 -2 -5 -11 6 -13 4 -8 -9 4 -10 7
-21 7 -24 0 -4 9 8 20 26 11 18 18 37 15 43 -4 5 -2 9 2 9 7 0 37 80 38 103 0
4 7 12 15 17 11 7 12 10 2 10 -10 0 -10 4 2 16 9 8 16 24 16 34 0 10 4 21 10
25 5 3 7 12 4 20 -4 8 1 18 10 21 9 3 16 14 16 24 0 21 16 35 24 21 7 -11 56
-8 80 6 25 14 6 20 -69 20 -43 1 -54 -1 -40 -8z m100 -9 c-4 -7 -75 -1 -75 6
0 3 18 4 39 2 22 -1 38 -5 36 -8z m-117 -25 c-3 -3 -9 2 -12 12 -6 14 -5 15 5
6 7 -7 10 -15 7 -18z m-38 -111 c0 -8 -19 -13 -24 -6 -3 5 1 9 9 9 8 0 15 -2
15 -3z m-73 -186 c-3 -8 -6 -5 -6 6 -1 11 2 17 5 13 3 -3 4 -12 1 -19z"/>
<path d="M4448 379 c-7 -4 -6 -8 3 -11 19 -7 5 -20 -23 -22 -13 0 -24 -7 -24
-13 -1 -7 -2 -18 -3 -23 0 -6 -7 -10 -13 -9 -24 3 -39 -1 -34 -9 3 -5 -4 -16
-15 -25 -20 -17 -27 -9 -9 9 7 7 6 11 -3 11 -8 0 -14 -5 -15 -11 0 -6 -3 -20
-6 -31 -2 -11 -5 -26 -5 -33 -1 -8 -10 -11 -25 -8 -20 4 -24 1 -21 -19 1 -16
-2 -22 -11 -18 -8 3 -14 -1 -14 -8 0 -7 -3 -9 -6 -6 -4 4 -2 13 4 20 9 10 8
14 -3 14 -7 0 -14 -3 -13 -6 2 -21 -4 -31 -19 -32 -15 0 -15 -2 2 -9 17 -7 17
-9 3 -9 -10 -1 -18 -9 -19 -18 0 -15 -2 -15 -8 2 -7 18 -8 17 -13 -7 -4 -24
-3 -26 13 -17 11 5 19 14 19 19 0 6 5 10 11 10 15 0 115 80 112 91 -2 4 9 17
22 27 14 11 25 25 25 32 0 6 4 9 9 6 4 -3 21 8 37 24 16 16 33 30 37 30 9 0
57 46 57 54 0 7 -39 3 -52 -5z"/>
<path d="M6296 381 c-5 -8 -10 -24 -12 -37 -1 -16 2 -21 13 -17 11 4 12 8 3
13 -10 6 -9 9 0 12 7 2 11 13 8 23 -3 16 -5 17 -12 6z"/>
<path d="M2180 299 c-36 -44 -82 -98 -104 -120 l-38 -39 113 -1 c63 -1 142 -1
176 -1 35 0 65 -4 69 -9 3 -5 11 -6 17 -2 14 8 237 13 251 5 5 -3 41 -4 80 -3
69 2 72 1 97 -31 14 -18 31 -48 38 -65 11 -27 19 -33 43 -33 21 0 27 4 21 13
-4 6 -8 17 -8 22 -1 6 -6 9 -13 8 -12 -3 -31 25 -29 42 1 6 -8 11 -20 13 -13
2 -24 8 -24 13 -1 5 -2 14 -3 21 -1 9 -29 12 -96 11 -88 0 -90 0 -30 6 36 4
-89 6 -277 4 -225 -2 -343 0 -343 7 0 9 12 14 30 12 3 0 7 9 7 20 2 24 6 29
29 32 9 2 19 10 21 19 2 9 5 25 7 35 3 9 5 24 5 32 1 9 4 11 9 5 16 -24 36
-10 38 28 1 20 2 37 1 37 -1 0 -31 -37 -67 -81z m-6 -57 c2 -4 -5 -9 -17 -9
-17 -2 -19 0 -7 7 18 12 18 12 24 2z m-49 -52 c-3 -5 -12 -10 -18 -10 -7 0 -6
4 3 10 19 12 23 12 15 0z m292 -46 c-3 -3 -12 -4 -19 -1 -8 3 -5 6 6 6 11 1
17 -2 13 -5z m100 0 c-3 -3 -12 -4 -19 -1 -8 3 -5 6 6 6 11 1 17 -2 13 -5z
m40 0 c-3 -3 -12 -4 -19 -1 -8 3 -5 6 6 6 11 1 17 -2 13 -5z m367 -116 c-3 -4
-11 -5 -19 -1 -21 7 -19 12 4 10 11 0 18 -5 15 -9z"/>
<path d="M2665 370 c-3 -5 -3 -15 0 -20 4 -6 2 -17 -5 -25 -7 -9 -8 -15 0 -20
12 -8 12 -8 14 38 2 39 1 43 -9 27z"/>
<path d="M3260 359 c0 -5 12 -9 28 -10 15 0 36 -3 47 -6 11 -2 36 -5 55 -6 19
-1 40 -5 45 -8 6 -3 21 -4 35 -3 14 2 32 0 40 -3 21 -8 31 -11 63 -18 24 -5
26 -4 15 9 -7 8 -15 14 -18 14 -3 0 -18 0 -35 2 -26 1 -27 3 -10 9 13 5 -1 8
-40 8 -91 0 -159 5 -170 13 -16 10 -55 10 -55 -1z"/>
<path d="M3571 354 c0 -11 3 -14 6 -6 3 7 2 16 -1 19 -3 4 -6 -2 -5 -13z"/>
<path d="M2269 358 c-8 -16 -3 -45 7 -45 10 0 11 4 3 13 -6 7 -8 18 -4 24 3 5
4 10 1 10 -3 0 -7 -1 -7 -2z"/>
<path d="M340 326 c0 -8 -3 -21 -6 -30 -3 -9 -2 -16 3 -16 5 0 10 14 11 30 1
17 0 30 -3 30 -3 0 -5 -6 -5 -14z"/>
<path d="M1712 310 c0 -14 2 -19 5 -12 2 6 2 18 0 25 -3 6 -5 1 -5 -13z"/>
<path d="M6243 313 c-3 -10 -8 -21 -10 -25 -2 -4 3 -5 11 -2 9 3 16 15 16 25
0 24 -9 25 -17 2z"/>
<path d="M2488 263 c7 -3 16 -2 19 1 4 3 -2 6 -13 5 -11 0 -14 -3 -6 -6z"/>
<path d="M5207 243 c-16 -4 -15 -7 7 -24 26 -21 36 -24 36 -11 0 18 -26 38
-43 35z"/>
<path d="M282 173 c-1 -22 0 -24 8 -13 12 18 13 40 2 40 -4 0 -9 -12 -10 -27z"/>
<path d="M0 111 c0 -5 7 -12 16 -15 8 -3 13 -10 9 -15 -3 -5 0 -13 6 -17 8 -4
9 -3 5 4 -4 7 -1 12 8 12 9 0 16 -8 16 -17 0 -15 2 -15 9 -4 7 10 0 21 -25 38
-38 25 -44 27 -44 14z"/>
<path d="M1551 96 c-8 -10 -9 -16 -1 -21 5 -3 10 -1 10 5 0 7 7 9 16 6 14 -5
15 -4 4 9 -15 18 -15 18 -29 1z"/>
<path d="M6100 80 c-9 -6 -10 -10 -3 -10 6 0 15 5 18 10 8 12 4 12 -15 0z"/>
</g>
</svg>
